<svg width="914" height="400" fill="none" xmlns="http://www.w3.org/2000/svg"><style>#CL0 {fill: #48B938;}#CL1 {fill: #555;}#CL2 {stop-color: #60C851;}#CL3 {stop-color: #6EDD5E;}#CL4 {fill: #FFF;}@media (prefers-color-scheme: dark) {#CL0 {fill: #48B938;}#CL1 {fill: #AAA;}#CL2 {stop-color: #60C851;}#CL3 {stop-color: #6EDD5E;}#CL4 {fill: #FFF;}}</style><path d="M346 207.373c0-1.221.383-3.328 1.125-6.273.743-2.993 1.126-4.813 1.126-5.46 0-.694-.527-1.58-1.557-2.705l.048-.551c1.94-.407 4.525-.598 7.71-.598.144.383.215 1.053.215 2.011 0 .982-.407 3.065-1.197 6.225-.814 3.185-1.197 5.172-1.197 5.938s.287 1.173.862 1.173c.838 0 1.796-.311 2.873-.91.12-.694.407-2.011.862-3.95 1.03-4.597 1.556-7.878 1.556-9.841 1.006-.407 2.802-.598 5.412-.598h.814c0 1.34-.407 3.974-1.197 7.925-.815 3.902-1.198 6.201-1.198 6.871 0 .671.144.982.431.982.168 0 .982-.335 2.443-1.03l.814 1.365c-2.562 2.131-4.789 3.185-6.704 3.185-.91 0-1.7-.264-2.371-.766a3.01 3.01 0 0 1-1.077-2.012c-2.323 1.892-4.43 2.85-6.321 2.85-1.006 0-1.844-.336-2.49-.982-.623-.671-.958-1.58-.958-2.801l-.024-.048Zm19.825 12.857c-.144-.335-.216-1.101-.216-2.275 0-1.173.551-4.333 1.676-9.457 1.126-5.172 1.676-9.122 1.676-11.924 0-.55-.119-1.125-.383-1.724-.263-.622-.526-1.125-.814-1.46l-.383-.479.048-.551c1.341-.431 3.735-.646 7.135-.646.311.598.527 1.436.599 2.538 2.203-1.796 4.046-2.706 5.507-2.706 1.484 0 2.681.623 3.567 1.844.91 1.221 1.365 3.041 1.365 5.411 0 4.166-.766 7.255-2.275 9.29-1.508 2.011-3.447 3.017-5.77 3.017-1.197 0-2.203-.168-3.017-.527l-.431-.168.312-1.676c.263.048.55.096.909.096.743 0 1.389-.335 1.94-1.029.574-.695 1.005-1.557 1.293-2.634.574-2.131.862-4.094.862-5.89 0-2.586-.527-3.879-1.581-3.879-.838 0-1.724.335-2.657.982-.12 2.011-.695 5.531-1.772 10.535-1.078 5.004-1.58 9.05-1.58 12.139-1.557.622-3.544 1.029-5.986 1.173h-.024Zm42.14-12.259c-2.442 2.083-4.597 3.137-6.441 3.137-1.843 0-2.897-.91-3.184-2.754a9.766 9.766 0 0 1-2.873 2.012c-1.054.478-1.988.742-2.802.742-1.365 0-2.562-.599-3.519-1.796-.982-1.197-1.461-3.065-1.461-5.603 0-3.783.814-6.752 2.418-8.907 1.604-2.178 3.424-3.28 5.411-3.28 2.036 0 3.736.455 5.124 1.365.886-4.645 1.341-8.308 1.341-10.966l-.215-1.796c2.154-.742 4.261-1.125 6.321-1.125.239.479.335 1.053.335 1.676 0 2.083-.623 6.345-1.892 12.786-1.269 6.392-1.891 10.726-1.891 13.025 0 .694.167 1.029.479 1.029.167 0 .718-.263 1.628-.814l.431-.263.814 1.508-.024.024Zm-10.344-13.911c-1.005 0-1.867.982-2.633 2.969-.719 1.987-1.078 3.951-1.078 5.89 0 1.916.12 3.161.383 3.687.288.551.695.815 1.245.815.958 0 1.868-.384 2.802-1.174.095-1.149.742-4.956 1.939-11.445-.982-.526-1.867-.766-2.658-.766v.024Zm17.551 17.048c-1.988 0-3.52-.695-4.645-2.059-1.126-1.413-1.676-3.352-1.676-5.842 0-3.185.838-5.914 2.538-8.213 1.724-2.299 4.094-3.448 7.087-3.448l1.556.096c.479-.263 1.03-.383 1.628-.383 2.275 0 3.4 2.131 3.4 6.417a20.619 20.619 0 0 0 3.568-.479l.694-.168.263 1.676c-.957.407-2.226.766-3.83 1.078l-.862.167c-.551 3.017-1.652 5.627-3.305 7.878-1.652 2.202-3.806 3.304-6.416 3.304v-.024Zm2.322-3.664c1.197 0 2.275-.766 3.233-2.322.981-1.556 1.652-3.184 2.011-4.908-3.065 0-4.597-1.15-4.597-3.448 0-.91.191-1.772.55-2.586l.216-.431a1.145 1.145 0 0 0-.431-.096c-.168 0-.311.024-.383.096-.719.455-1.389 1.532-2.011 3.232-.623 1.7-.958 3.616-.958 5.818 0 3.089.79 4.645 2.37 4.645Zm10.176-.383.479-11.229c0-.982-.527-1.987-1.556-3.017l.095-.527c.192-.047.383-.095.551-.119.192-.048.407-.12.647-.168.263-.048.55-.12.861-.167.312-.048.647-.12.982-.168.814-.096 1.556-.12 2.227-.12.718 0 1.317.288 1.796.862.526.575.766 1.485.766 2.754 0 1.221-.192 3.016-.599 5.339-.383 2.298-.55 4.022-.55 5.172 0 1.125.263 1.676.814 1.676.885 0 1.867-.551 2.921-1.676.024-.455.215-1.916.55-4.382.336-2.466.527-4.262.527-5.387s-.096-2.083-.263-2.873c2.202-.838 4.19-1.245 5.938-1.245.383.263.55 1.101.55 2.538 0 1.412-.239 3.376-.742 5.89-.479 2.49-.742 4.309-.742 5.459 0 1.125.239 1.676.694 1.676 1.102 0 2.275-.814 3.568-2.419 1.293-1.628 1.987-2.992 2.059-4.094l-2.921-3.28c.119-1.221.407-2.346.91-3.352.478-1.006.957-1.7 1.364-2.107l.599-.551c1.221 0 2.155.335 2.801.982.623.67.958 1.436.958 2.322 0 2.275-.551 4.669-1.676 7.183-1.125 2.514-2.634 4.669-4.525 6.441-1.892 1.748-3.807 2.634-5.771 2.634-.981 0-1.795-.264-2.49-.814-.67-.575-1.101-1.293-1.34-2.203-2.012 2.011-3.951 3.017-5.843 3.017-1.269 0-2.202-.383-2.801-1.173-.599-.815-.91-1.772-.91-2.874h.072Zm27.008 3.664h-.814c0-1.341.407-3.927 1.197-7.734.838-3.807 1.245-5.986 1.245-6.489 0-.957-.407-1.939-1.197-3.016l-.383-.527.048-.551c1.556-.431 4.022-.646 7.446-.646.383.479.575 1.364.599 2.657 2.49-1.915 4.597-2.873 6.321-2.873 1.029 0 1.843.359 2.442 1.078.622.718.957 1.628.957 2.705 0 1.054-.335 2.921-.981 5.555-.671 2.634-.982 4.406-.982 5.339 0 .886.12 1.341.335 1.341.168 0 .767-.263 1.796-.814l.527-.263.766 1.508c-.263.24-.599.527-1.03.862-.431.335-1.221.814-2.418 1.413-1.149.574-2.179.862-3.088.862-2.084 0-3.137-1.197-3.137-3.568 0-1.005.311-2.849.958-5.555.67-2.705.981-4.429.981-5.195s-.239-1.15-.742-1.174c-.838 0-1.843.36-3.065 1.078a218.45 218.45 0 0 1-.862 3.879c-1.005 4.501-1.508 7.685-1.508 9.553-1.006.407-2.801.599-5.411.599" id="CL1"/><rect x="488" y="184" width="80" height="32" rx="8" fill="url(#updown-badge__a)"/><path d="M510.577 203.697c0 1.094-.182 2.064-.547 2.91-.358.84-.869 1.491-1.533 1.954a3.898 3.898 0 0 1-2.256.683c-.644 0-1.198-.117-1.66-.351a3.049 3.049 0 0 1-1.084-.928h-.039V209h-4.16v-14.805h4.16v6.162h.039a3.436 3.436 0 0 1 1.319-1.171 3.985 3.985 0 0 1 1.845-.43c1.263 0 2.23.42 2.901 1.26.677.839 1.015 2.067 1.015 3.681Zm-4.218.127c0-.67-.131-1.175-.391-1.513-.254-.339-.622-.508-1.104-.508-.423 0-.778.179-1.064.537-.28.351-.42.81-.42 1.377v.605c0 .573.127 1.029.381 1.367.254.339.596.508 1.025.508.502 0 .889-.205 1.162-.615.274-.417.411-1.003.411-1.758ZM517.296 209v-1.523h-.039c-.664 1.178-1.679 1.767-3.046 1.767-.944 0-1.683-.28-2.217-.84-.534-.56-.801-1.308-.801-2.246 0-1.966 1.208-3.105 3.623-3.418l2.48-.322c0-.326-.146-.592-.439-.801-.293-.208-.687-.312-1.182-.312-1.119 0-2.301.319-3.545.957v-2.705c.541-.235 1.218-.427 2.032-.577.814-.149 1.51-.224 2.09-.224 1.699 0 2.929.364 3.691 1.094.768.722 1.152 1.933 1.152 3.632V209h-3.799Zm-2.46-3.398a.93.93 0 0 0 .253.673c.176.176.424.264.743.264.436 0 .787-.163 1.054-.488.274-.326.41-.742.41-1.25v-.381l-1.406.195c-.703.117-1.054.446-1.054.987ZM529.26 209v-1.162h-.039a3.477 3.477 0 0 1-1.299 1.035 3.747 3.747 0 0 1-1.582.371c-.853 0-1.605-.208-2.256-.625-.651-.423-1.139-1.012-1.465-1.767-.319-.756-.478-1.648-.478-2.676 0-1.061.192-2.002.576-2.822.384-.821.924-1.459 1.621-1.915a4.195 4.195 0 0 1 2.344-.683c.41 0 .787.058 1.132.176.352.117.655.276.909.478.26.195.426.391.498.586h.039v-5.801h4.16V209h-4.16Zm.088-5.303c0-.599-.134-1.064-.401-1.396-.26-.332-.615-.498-1.064-.498-.449 0-.817.208-1.104.625-.28.41-.42.96-.42 1.65 0 1.413.489 2.119 1.465 2.119.462 0 .83-.189 1.104-.566.28-.384.42-.941.42-1.67v-.264Zm16.523 3.907c0 1.92-.605 3.414-1.816 4.482-1.204 1.074-2.965 1.611-5.283 1.611-.625 0-1.231-.049-1.817-.146-.585-.098-1.005-.209-1.259-.332v-3.262c.416.26.905.469 1.465.625.559.156 1.057.234 1.494.234.931 0 1.676-.224 2.236-.673.56-.45.84-1.045.84-1.788v-.615h-.039c-.3.456-.713.821-1.24 1.094a3.567 3.567 0 0 1-1.68.41c-1.289 0-2.308-.446-3.057-1.338-.748-.898-1.123-2.135-1.123-3.711 0-1.08.195-2.034.586-2.861.391-.827.934-1.462 1.631-1.904a4.161 4.161 0 0 1 2.305-.674c1.152 0 2.011.426 2.578 1.279h.039V199h4.14v8.604Zm-4.072-3.887c0-.586-.133-1.052-.4-1.397a1.244 1.244 0 0 0-1.045-.517c-.469 0-.843.208-1.123.625-.28.416-.42.973-.42 1.67 0 .644.117 1.155.351 1.533.235.377.606.566 1.114.566.475 0 .846-.192 1.113-.576.273-.391.41-.911.41-1.562v-.342Zm9.268 1.465c.072.429.319.768.742 1.015.424.241.983.362 1.68.362a6.92 6.92 0 0 0 2.754-.557v2.637c-1.009.403-2.233.605-3.672.605-1.745 0-3.102-.446-4.072-1.338-.97-.892-1.455-2.119-1.455-3.681 0-1.075.211-2.022.635-2.842a4.602 4.602 0 0 1 1.894-1.924 5.59 5.59 0 0 1 2.773-.703c1.036 0 1.921.202 2.657.605.735.404 1.292.97 1.67 1.7.384.729.576 1.582.576 2.558v1.563h-6.182Zm2.5-2.178c0-1.152-.413-1.729-1.24-1.729-.345 0-.635.16-.869.479-.235.312-.371.729-.41 1.25h2.519Z" id="CL0"/><path d="M510.577 201.697c0 1.094-.182 2.064-.547 2.91-.358.84-.869 1.491-1.533 1.954a3.898 3.898 0 0 1-2.256.683c-.644 0-1.198-.117-1.66-.351a3.049 3.049 0 0 1-1.084-.928h-.039V207h-4.16v-14.805h4.16v6.162h.039a3.436 3.436 0 0 1 1.319-1.171 3.985 3.985 0 0 1 1.845-.43c1.263 0 2.23.42 2.901 1.26.677.839 1.015 2.067 1.015 3.681Zm-4.218.127c0-.67-.131-1.175-.391-1.513-.254-.339-.622-.508-1.104-.508-.423 0-.778.179-1.064.537-.28.351-.42.81-.42 1.377v.605c0 .573.127 1.029.381 1.367.254.339.596.508 1.025.508.502 0 .889-.205 1.162-.615.274-.417.411-1.003.411-1.758ZM517.296 207v-1.523h-.039c-.664 1.178-1.679 1.767-3.046 1.767-.944 0-1.683-.28-2.217-.84-.534-.56-.801-1.308-.801-2.246 0-1.966 1.208-3.105 3.623-3.418l2.48-.322c0-.326-.146-.592-.439-.801-.293-.208-.687-.312-1.182-.312-1.119 0-2.301.319-3.545.957v-2.705c.541-.235 1.218-.427 2.032-.577.814-.149 1.51-.224 2.09-.224 1.699 0 2.929.364 3.691 1.094.768.722 1.152 1.933 1.152 3.632V207h-3.799Zm-2.46-3.398a.93.93 0 0 0 .253.673c.176.176.424.264.743.264.436 0 .787-.163 1.054-.488.274-.326.41-.742.41-1.25v-.381l-1.406.195c-.703.117-1.054.446-1.054.987ZM529.26 207v-1.162h-.039a3.477 3.477 0 0 1-1.299 1.035 3.747 3.747 0 0 1-1.582.371c-.853 0-1.605-.208-2.256-.625-.651-.423-1.139-1.012-1.465-1.767-.319-.756-.478-1.648-.478-2.676 0-1.061.192-2.002.576-2.822.384-.821.924-1.459 1.621-1.915a4.195 4.195 0 0 1 2.344-.683c.41 0 .787.058 1.132.176.352.117.655.276.909.478.26.195.426.391.498.586h.039v-5.801h4.16V207h-4.16Zm.088-5.303c0-.599-.134-1.064-.401-1.396-.26-.332-.615-.498-1.064-.498-.449 0-.817.208-1.104.625-.28.41-.42.96-.42 1.65 0 1.413.489 2.119 1.465 2.119.462 0 .83-.189 1.104-.566.28-.384.42-.941.42-1.67v-.264Zm16.523 3.907c0 1.92-.605 3.414-1.816 4.482-1.204 1.074-2.965 1.611-5.283 1.611-.625 0-1.231-.049-1.817-.146-.585-.098-1.005-.209-1.259-.332v-3.262c.416.26.905.469 1.465.625.559.156 1.057.234 1.494.234.931 0 1.676-.224 2.236-.673.56-.45.84-1.045.84-1.788v-.615h-.039c-.3.456-.713.821-1.24 1.094a3.567 3.567 0 0 1-1.68.41c-1.289 0-2.308-.446-3.057-1.338-.748-.898-1.123-2.135-1.123-3.711 0-1.08.195-2.034.586-2.861.391-.827.934-1.462 1.631-1.904a4.161 4.161 0 0 1 2.305-.674c1.152 0 2.011.426 2.578 1.279h.039V197h4.14v8.604Zm-4.072-3.887c0-.586-.133-1.052-.4-1.397a1.244 1.244 0 0 0-1.045-.517c-.469 0-.843.208-1.123.625-.28.416-.42.973-.42 1.67 0 .644.117 1.155.351 1.533.235.377.606.566 1.114.566.475 0 .846-.192 1.113-.576.273-.391.41-.911.41-1.562v-.342Zm9.268 1.465c.072.429.319.768.742 1.015.424.241.983.362 1.68.362a6.92 6.92 0 0 0 2.754-.557v2.637c-1.009.403-2.233.605-3.672.605-1.745 0-3.102-.446-4.072-1.338-.97-.892-1.455-2.119-1.455-3.681 0-1.075.211-2.022.635-2.842a4.602 4.602 0 0 1 1.894-1.924 5.59 5.59 0 0 1 2.773-.703c1.036 0 1.921.202 2.657.605.735.404 1.292.97 1.67 1.7.384.729.576 1.582.576 2.558v1.563h-6.182Zm2.5-2.178c0-1.152-.413-1.729-1.24-1.729-.345 0-.635.16-.869.479-.235.312-.371.729-.41 1.25h2.519Z" id="CL4"/><defs><linearGradient id="updown-badge__a" x1="528" y1="184" x2="528" y2="216" gradientUnits="userSpaceOnUse"><stop id="CL3"/><stop offset="1" id="CL2"/></linearGradient></defs></svg>